<?xml version="1.0" encoding="UTF-8"?>
<svg id="Layer_2" data-name="Layer 2" xmlns="http://www.w3.org/2000/svg" viewBox="0 0 149.3 27.34">
  <g id="Layer_12" data-name="Layer 12">
    <g>
      <g id="UN1FdZ.tif">
        <path d="m0,18c.05-.09.1-.17.14-.25.34-.58.67-1.17,1.01-1.75.05-.08.09-.1.19-.06,1.01.4,2.02.78,3.02,1.18,1.37.54,2.73,1.08,4.09,1.62.07.03.13.04.2,0,1.19-.47,2.38-.94,3.57-1.41,1.21-.47,2.43-.94,3.64-1.42.08-.03.09.01.11.05.16.28.33.57.49.85.21.36.42.73.62,1.09.02.03.03.06.05.1-.27.11-.53.22-.8.32-1.58.61-3.17,1.22-4.75,1.83-.98.38-1.97.75-2.95,1.12-.04.02-.11.01-.16,0-1.06-.4-2.12-.81-3.18-1.22-.82-.32-1.65-.63-2.48-.94-.92-.35-1.83-.71-2.75-1.06-.03-.01-.05-.03-.09-.05Z"/>
      </g>
      <path d="m8.94.82c1.87,2.24,5.04,5.01,5.04,7.87s-2.4,5.38-5.38,5.38-5.43-2.4-5.43-5.38S6.35,3.06,8.22.82l.36-.41.37.41Z"/>
      <g>
        <path d="m24.25.86h2.61v16.96h10.08v2.43h-12.69V.86Z"/>
        <path d="m38.29,1.77c0-.48.17-.89.51-1.24.34-.35.76-.53,1.26-.53s.92.18,1.26.53c.34.35.51.77.51,1.24,0,.52-.17.94-.5,1.27s-.76.5-1.27.5-.94-.17-1.28-.5-.5-.76-.5-1.27Zm.56,3.92h2.43v14.56h-2.43V5.69Z"/>
        <path d="m59.06,27.34h-2.43v-9.21h-.06c-.66.79-1.44,1.4-2.32,1.84-.88.44-1.85.65-2.91.65-1.14,0-2.18-.19-3.13-.58-.94-.38-1.75-.92-2.41-1.6-.66-.68-1.18-1.49-1.55-2.43-.37-.93-.56-1.95-.56-3.05s.19-2.08.56-3.02c.37-.93.89-1.74,1.54-2.43.65-.68,1.43-1.22,2.32-1.62.89-.39,1.85-.59,2.86-.59,1.31,0,2.45.29,3.44.86.98.57,1.71,1.27,2.16,2.1h.06v-2.58h2.43v21.65Zm-2.43-14.37c0-.77-.12-1.48-.36-2.13-.24-.65-.59-1.22-1.04-1.71s-1-.87-1.63-1.15-1.34-.42-2.13-.42-1.5.14-2.13.42c-.63.28-1.18.66-1.63,1.15s-.8,1.06-1.04,1.71c-.24.65-.36,1.36-.36,2.13s.12,1.48.36,2.13c.24.65.59,1.22,1.04,1.71s1,.87,1.63,1.15c.63.28,1.34.42,2.13.42s1.5-.14,2.13-.42c.63-.28,1.18-.66,1.63-1.15s.8-1.06,1.04-1.71c.24-.65.36-1.36.36-2.13Z"/>
        <path d="m61.99,9.14c0-.66-.02-1.29-.06-1.87s-.06-1.11-.06-1.59h2.3c0,.39.01.79.03,1.18.02.39.03.8.03,1.21h.06c.17-.35.4-.69.7-1.03.3-.33.66-.63,1.07-.89.41-.26.88-.47,1.4-.62s1.08-.23,1.68-.23c.17,0,.33.01.5.03s.33.06.5.12l-.16,2.46c-.41-.12-.85-.19-1.31-.19-1.49,0-2.58.48-3.25,1.45-.67.96-1.01,2.29-1.01,3.97v7.09h-2.43v-11.1Z"/>
        <path d="m75.07.86h2.95l6.78,15.94h.06l7-15.94h2.77l-8.62,19.39h-2.52L75.07.86Z"/>
        <path d="m95.83,1.77c0-.48.17-.89.51-1.24.34-.35.76-.53,1.26-.53s.92.18,1.26.53c.34.35.51.77.51,1.24,0,.52-.17.94-.5,1.27s-.76.5-1.27.5-.94-.17-1.28-.5-.5-.76-.5-1.27Zm.56,3.92h2.43v14.56h-2.43V5.69Z"/>
        <path d="m102.4,16.42c.48.6,1,1.08,1.57,1.43.57.35,1.29.53,2.16.53.37,0,.75-.04,1.14-.12.38-.08.73-.22,1.04-.4.31-.19.56-.42.75-.7s.28-.62.28-1.01-.09-.72-.26-.96-.41-.46-.7-.64c-.29-.18-.62-.32-1-.42-.37-.1-.76-.2-1.15-.28-.68-.14-1.34-.31-1.96-.5s-1.17-.43-1.63-.73c-.47-.3-.84-.69-1.12-1.17-.28-.48-.42-1.09-.42-1.83,0-.7.16-1.33.47-1.87s.73-.98,1.24-1.34c.52-.35,1.1-.62,1.74-.81s1.31-.28,1.99-.28c1.04,0,2,.21,2.88.62.88.42,1.57,1.09,2.07,2.02l-2.02,1.34c-.31-.52-.72-.94-1.23-1.26-.51-.32-1.12-.48-1.85-.48-.33,0-.67.04-1.01.12s-.65.21-.92.37-.49.38-.67.64-.26.55-.26.89c0,.31.1.57.29.79s.47.41.81.58c.34.17.74.31,1.18.44.45.12.91.23,1.38.31.64.12,1.25.29,1.84.48.58.2,1.09.46,1.52.79.44.33.78.75,1.03,1.24.25.5.37,1.11.37,1.84,0,.83-.17,1.53-.5,2.12-.33.58-.77,1.05-1.32,1.42-.55.36-1.17.63-1.87.79-.7.17-1.4.25-2.13.25-1.24,0-2.32-.19-3.22-.58-.9-.38-1.72-1.09-2.44-2.13l1.93-1.49Z"/>
        <path d="m113.44,1.77c0-.48.17-.89.51-1.24.34-.35.76-.53,1.26-.53s.92.18,1.26.53c.34.35.51.77.51,1.24,0,.52-.17.94-.5,1.27s-.76.5-1.27.5-.94-.17-1.28-.5-.5-.76-.5-1.27Zm.56,3.92h2.43v14.56h-2.43V5.69Z"/>
        <path d="m118.85,12.97c0-1.14.2-2.18.59-3.11.39-.93.93-1.74,1.62-2.41.68-.67,1.5-1.2,2.46-1.57.95-.37,1.99-.56,3.11-.56s2.16.19,3.11.56c.95.37,1.77.9,2.46,1.57.68.67,1.22,1.48,1.62,2.41.39.93.59,1.97.59,3.11s-.2,2.18-.59,3.11c-.39.93-.93,1.74-1.62,2.41s-1.5,1.2-2.46,1.57-1.99.56-3.11.56-2.16-.19-3.11-.56c-.95-.37-1.77-.9-2.46-1.57-.68-.67-1.22-1.48-1.62-2.41-.39-.93-.59-1.97-.59-3.11Zm2.61,0c0,.77.12,1.48.36,2.13.24.65.59,1.22,1.04,1.71s1,.87,1.63,1.15c.63.28,1.34.42,2.13.42s1.5-.14,2.13-.42c.63-.28,1.18-.66,1.63-1.15s.8-1.06,1.04-1.71c.24-.65.36-1.36.36-2.13s-.12-1.48-.36-2.13c-.24-.65-.59-1.22-1.04-1.71s-1-.87-1.63-1.15-1.34-.42-2.13-.42-1.5.14-2.13.42c-.63.28-1.18.66-1.63,1.15s-.8,1.06-1.04,1.71c-.24.65-.36,1.36-.36,2.13Z"/>
        <path d="m136.61,9.14c0-.66-.02-1.29-.06-1.87s-.06-1.11-.06-1.59h2.3c0,.39.01.79.03,1.18.02.39.03.8.03,1.21h.06c.17-.35.4-.69.7-1.03.3-.33.66-.63,1.07-.89.41-.26.88-.47,1.4-.62s1.08-.23,1.68-.23c.95,0,1.78.15,2.47.44.7.29,1.27.7,1.73,1.21.46.52.79,1.15,1.01,1.88s.33,1.54.33,2.41v8.99h-2.43v-8.74c0-1.22-.27-2.19-.81-2.89-.54-.7-1.38-1.06-2.52-1.06-.79,0-1.47.13-2.04.4-.57.27-1.04.65-1.4,1.15-.36.5-.63,1.09-.81,1.77-.18.68-.26,1.44-.26,2.27v7.09h-2.43v-11.1Z"/>
      </g>
    </g>
  </g>
</svg>