<?xml version="1.0" encoding="UTF-8"?>
<svg xmlns="http://www.w3.org/2000/svg" viewBox="0 0 17.5 22">
  <defs>
    <style>
      .cls-1 { fill: #fff; }
    </style>
  </defs>
  <!-- water droplet -->
  <path class="cls-1" d="m8.94.82c1.87,2.24,5.04,5.01,5.04,7.87s-2.4,5.38-5.38,5.38-5.43-2.4-5.43-5.38S6.35,3.06,8.22.82l.36-.41.37.41Z"/>
  <!-- wave below droplet -->
  <path class="cls-1" d="m0,18c.05-.09.1-.17.14-.25.34-.58.67-1.17,1.01-1.75.05-.08.09-.1.19-.06,1.01.4,2.02.78,3.02,1.18,1.37.54,2.73,1.08,4.09,1.62.07.03.13.04.2,0,1.19-.47,2.38-.94,3.57-1.41,1.21-.47,2.43-.94,3.64-1.42.08-.03.09.01.11.05.16.28.33.57.49.85.21.36.42.73.62,1.09.02.03.03.06.05.1-.27.11-.53.22-.8.32-1.58.61-3.17,1.22-4.75,1.83-.98.38-1.97.75-2.95,1.12-.04.02-.11.01-.16,0-1.06-.4-2.12-.81-3.18-1.22-.82-.32-1.65-.63-2.48-.94-.92-.35-1.83-.71-2.75-1.06-.03-.01-.05-.03-.09-.05Z"/>
</svg>
